<svg width="46" height="60" viewBox="0 0 46 60" fill="none" xmlns="http://www.w3.org/2000/svg">
<path d="M11.3833 20.7724V10.9447C11.3833 9.42066 11.9385 7.95362 12.9351 6.79993L13.0917 6.61477C18.2451 0.689642 27.3563 0.433267 32.8372 6.05929C33.976 7.24147 34.6167 8.82246 34.6167 10.4604V20.9433" stroke="#F657BC" stroke-width="3.43526" stroke-miterlimit="10"/>
<path d="M40.2684 58.1778H5.73159C3.95208 58.1778 2.5 56.725 2.5 54.9446V25.1765C2.5 23.3962 3.95208 21.9434 5.73159 21.9434H40.2684C42.0479 21.9434 43.5 23.3962 43.5 25.1765V54.9446C43.5 56.725 42.0479 58.1778 40.2684 58.1778Z" stroke="#F657BC" stroke-width="3.43526" stroke-miterlimit="10"/>
<path d="M23.2958 45.2387C26.2206 45.2387 28.5917 42.8431 28.5917 39.8879C28.5917 36.9327 26.2206 34.5371 23.2958 34.5371C20.371 34.5371 18 36.9327 18 39.8879C18 42.8431 20.371 45.2387 23.2958 45.2387Z" fill="#F657BC"/>
</svg>
