<svg width="36" height="26" viewBox="0 0 36 26" fill="none" xmlns="http://www.w3.org/2000/svg">
<g id="Group 39897">
<path id="Rectangle 750" d="M0 3C0 1.34315 1.34315 0 3 0H36V6H3C1.34315 6 0 4.65685 0 3Z" fill="url(#paint0_linear_304_234)"/>
<path id="Rectangle 753" d="M22 23.5C22 22.1193 23.1193 21 24.5 21H36V26H24.5C23.1193 26 22 24.8807 22 23.5Z" fill="url(#paint1_linear_304_234)"/>
<rect id="Rectangle 754" x="1" y="11" width="5" height="5" rx="2.5" fill="url(#paint2_linear_304_234)"/>
<path id="Rectangle 752" d="M2.18557e-07 23.5C9.78513e-08 24.8807 1.11929 26 2.5 26L20 26L20 21L2.5 21C1.11929 21 3.39263e-07 22.1193 2.18557e-07 23.5Z" fill="url(#paint3_linear_304_234)"/>
<path id="Rectangle 751" d="M36 13.5C36 14.8807 34.8807 16 33.5 16L9 16L9 11L33.5 11C34.8807 11 36 12.1193 36 13.5Z" fill="url(#paint4_linear_304_234)"/>
</g>
<defs>
<linearGradient id="paint0_linear_304_234" x1="-44" y1="10.5" x2="-13.7385" y2="-47.2249" gradientUnits="userSpaceOnUse">
<stop offset="0.234" stop-color="#FF9532"/>
<stop offset="0.514" stop-color="#FE5A69"/>
<stop offset="0.814" stop-color="#F657BC"/>
</linearGradient>
<linearGradient id="paint1_linear_304_234" x1="4.88889" y1="29.75" x2="35.3447" y2="2.63872" gradientUnits="userSpaceOnUse">
<stop offset="0.234" stop-color="#FF9532"/>
<stop offset="0.514" stop-color="#FE5A69"/>
<stop offset="0.814" stop-color="#F657BC"/>
</linearGradient>
<linearGradient id="paint2_linear_304_234" x1="-5.11111" y1="19.75" x2="12.5956" y2="14.1206" gradientUnits="userSpaceOnUse">
<stop offset="0.234" stop-color="#FF9532"/>
<stop offset="0.514" stop-color="#FE5A69"/>
<stop offset="0.814" stop-color="#F657BC"/>
</linearGradient>
<linearGradient id="paint3_linear_304_234" x1="-24.4444" y1="17.25" x2="5.35286" y2="55.143" gradientUnits="userSpaceOnUse">
<stop offset="0.234" stop-color="#FF9532"/>
<stop offset="0.514" stop-color="#FE5A69"/>
<stop offset="0.814" stop-color="#F657BC"/>
</linearGradient>
<linearGradient id="paint4_linear_304_234" x1="69" y1="7.24999" x2="42.3288" y2="53.0387" gradientUnits="userSpaceOnUse">
<stop offset="0.234" stop-color="#FF9532"/>
<stop offset="0.514" stop-color="#FE5A69"/>
<stop offset="0.814" stop-color="#F657BC"/>
</linearGradient>
</defs>
</svg>
